G75*
G70*
%OFA0B0*%
%FSLAX24Y24*%
%IPPOS*%
%LPD*%
%AMOC8*
5,1,8,0,0,1.08239X$1,22.5*
%
%ADD10C,0.0080*%
%ADD11R,0.0945X0.0945*%
%ADD12C,0.0000*%
%ADD13C,0.0320*%
%ADD14R,0.0356X0.0356*%
%ADD15C,0.0320*%
%ADD16C,0.0240*%
D10*
X000140Y000149D02*
X000140Y008409D01*
X030439Y008409D01*
X030439Y000149D01*
X000140Y000149D01*
X000534Y000543D02*
X000534Y003706D01*
X001453Y003706D01*
X001512Y003765D01*
X001512Y004793D01*
X001453Y004851D01*
X000534Y004851D01*
X000534Y008023D01*
X025886Y008023D01*
X025840Y007976D01*
X025800Y007881D01*
X025800Y007777D01*
X025840Y007682D01*
X025913Y007609D01*
X026008Y007569D01*
X026482Y007569D01*
X025762Y006849D01*
X025649Y006849D01*
X025520Y006720D01*
X025520Y006538D01*
X025569Y006489D01*
X024728Y006489D01*
X024633Y006449D01*
X024560Y006376D01*
X024433Y006249D01*
X024422Y006249D01*
X024373Y006249D01*
X024371Y006248D01*
X024368Y006248D01*
X024323Y006228D01*
X024278Y006209D01*
X024276Y006208D01*
X024273Y006206D01*
X024239Y006171D01*
X024205Y006136D01*
X024204Y006134D01*
X024202Y006132D01*
X024184Y006086D01*
X024165Y006041D01*
X024165Y006038D01*
X024164Y006036D01*
X024165Y005986D01*
X024165Y005937D01*
X024166Y005935D01*
X024166Y005932D01*
X024186Y005887D01*
X024205Y005842D01*
X024206Y005840D01*
X024221Y005807D01*
X024240Y005762D01*
X024241Y005760D01*
X024243Y005757D01*
X024278Y005723D01*
X024313Y005689D01*
X024315Y005688D01*
X024317Y005686D01*
X024363Y005668D01*
X024408Y005649D01*
X024411Y005649D01*
X024413Y005648D01*
X024463Y005649D01*
X024512Y005649D01*
X024514Y005650D01*
X024517Y005650D01*
X024562Y005670D01*
X024607Y005689D01*
X024609Y005690D01*
X024612Y005692D01*
X024646Y005727D01*
X024888Y005969D01*
X025952Y005969D01*
X026160Y005762D01*
X026233Y005689D01*
X026328Y005649D01*
X026752Y005649D01*
X026847Y005689D01*
X027167Y006009D01*
X027240Y006082D01*
X027280Y006177D01*
X027280Y006499D01*
X027281Y006500D01*
X027280Y006551D01*
X027280Y006601D01*
X027279Y006602D01*
X027279Y006604D01*
X027260Y006650D01*
X027240Y006696D01*
X027239Y006697D01*
X027239Y006699D01*
X027203Y006734D01*
X027167Y006769D01*
X027166Y006770D01*
X027165Y006771D01*
X027118Y006790D01*
X027072Y006809D01*
X027071Y006809D01*
X027047Y006819D01*
X027045Y006819D01*
X027044Y006820D01*
X026993Y006819D01*
X026943Y006819D01*
X026942Y006818D01*
X026940Y006818D01*
X026894Y006799D01*
X026848Y006779D01*
X026847Y006778D01*
X026845Y006778D01*
X026810Y006742D01*
X026775Y006706D01*
X026774Y006705D01*
X026773Y006704D01*
X026755Y006659D01*
X026735Y006706D01*
X026662Y006779D01*
X026567Y006819D01*
X026463Y006819D01*
X026368Y006779D01*
X026295Y006706D01*
X026255Y006611D01*
X026255Y006507D01*
X026295Y006412D01*
X026368Y006339D01*
X026463Y006299D01*
X026567Y006299D01*
X026662Y006339D01*
X026735Y006412D01*
X026755Y006459D01*
X026755Y006458D01*
X026760Y006447D01*
X026760Y006337D01*
X026592Y006169D01*
X026488Y006169D01*
X026207Y006449D01*
X026112Y006489D01*
X025911Y006489D01*
X025960Y006538D01*
X025960Y006651D01*
X026878Y007569D01*
X028352Y007569D01*
X028447Y007609D01*
X028520Y007682D01*
X028560Y007777D01*
X028560Y007881D01*
X028520Y007976D01*
X028474Y008023D01*
X030061Y008023D01*
X030061Y004851D01*
X029126Y004851D01*
X029068Y004793D01*
X029068Y004218D01*
X028992Y004249D01*
X028408Y004249D01*
X027167Y005489D01*
X027072Y005529D01*
X015768Y005529D01*
X015673Y005489D01*
X015600Y005416D01*
X014677Y004494D01*
X014600Y004419D01*
X014468Y004419D01*
X014409Y004361D01*
X014409Y003922D01*
X014468Y003863D01*
X014907Y003863D01*
X014965Y003922D01*
X014965Y004049D01*
X015005Y004088D01*
X015007Y004089D01*
X015043Y004124D01*
X015078Y004159D01*
X015079Y004160D01*
X015928Y005009D01*
X025989Y005009D01*
X025802Y004932D01*
X025586Y004715D01*
X025469Y004432D01*
X025469Y004126D01*
X025586Y003843D01*
X025802Y003626D01*
X026085Y003509D01*
X026392Y003509D01*
X026675Y003626D01*
X026891Y003843D01*
X027008Y004126D01*
X027008Y004432D01*
X026891Y004715D01*
X026675Y004932D01*
X026488Y005009D01*
X026912Y005009D01*
X028080Y003842D01*
X028153Y003769D01*
X028248Y003729D01*
X028992Y003729D01*
X029071Y003762D01*
X029126Y003706D01*
X030061Y003706D01*
X030061Y000543D01*
X000534Y000543D01*
X000534Y000620D02*
X030061Y000620D01*
X030061Y000698D02*
X000534Y000698D01*
X000534Y000777D02*
X030061Y000777D01*
X030061Y000855D02*
X000534Y000855D01*
X000534Y000934D02*
X030061Y000934D01*
X030061Y001012D02*
X000534Y001012D01*
X000534Y001091D02*
X030061Y001091D01*
X030061Y001169D02*
X000534Y001169D01*
X000534Y001248D02*
X030061Y001248D01*
X030061Y001326D02*
X000534Y001326D01*
X000534Y001405D02*
X030061Y001405D01*
X030061Y001483D02*
X000534Y001483D01*
X000534Y001562D02*
X030061Y001562D01*
X030061Y001640D02*
X000534Y001640D01*
X000534Y001719D02*
X004431Y001719D01*
X004429Y001721D02*
X004487Y001662D01*
X004926Y001662D01*
X004985Y001721D01*
X004985Y002160D01*
X004926Y002218D01*
X004487Y002218D01*
X004429Y002160D01*
X004429Y001721D01*
X004429Y001797D02*
X000534Y001797D01*
X000534Y001876D02*
X004429Y001876D01*
X004429Y001954D02*
X000534Y001954D01*
X000534Y002033D02*
X004429Y002033D01*
X004429Y002111D02*
X000534Y002111D01*
X000534Y002190D02*
X004459Y002190D01*
X004955Y002190D02*
X009191Y002190D01*
X009220Y002218D02*
X009161Y002160D01*
X009161Y001721D01*
X009220Y001662D01*
X009659Y001662D01*
X009717Y001721D01*
X009717Y002160D01*
X009659Y002218D01*
X009220Y002218D01*
X009161Y002111D02*
X004985Y002111D01*
X004985Y002033D02*
X009161Y002033D01*
X009161Y001954D02*
X004985Y001954D01*
X004985Y001876D02*
X009161Y001876D01*
X009161Y001797D02*
X004985Y001797D01*
X004983Y001719D02*
X009163Y001719D01*
X009716Y001719D02*
X009909Y001719D01*
X009909Y001717D02*
X009968Y001658D01*
X010407Y001658D01*
X010465Y001717D01*
X010465Y002156D01*
X010407Y002214D01*
X009968Y002214D01*
X009909Y002156D01*
X009909Y001717D01*
X009909Y001797D02*
X009717Y001797D01*
X009717Y001876D02*
X009909Y001876D01*
X009909Y001954D02*
X009717Y001954D01*
X009717Y002033D02*
X009909Y002033D01*
X009909Y002111D02*
X009717Y002111D01*
X009687Y002190D02*
X009943Y002190D01*
X010431Y002190D02*
X014675Y002190D01*
X014700Y002214D02*
X014641Y002156D01*
X014641Y001717D01*
X014700Y001658D01*
X015139Y001658D01*
X015198Y001717D01*
X015198Y002156D01*
X015139Y002214D01*
X014700Y002214D01*
X014641Y002111D02*
X010465Y002111D01*
X010465Y002033D02*
X014641Y002033D01*
X014641Y001954D02*
X010465Y001954D01*
X010465Y001876D02*
X014641Y001876D01*
X014641Y001797D02*
X010465Y001797D01*
X010465Y001719D02*
X014641Y001719D01*
X015198Y001719D02*
X015387Y001719D01*
X015386Y001721D02*
X015444Y001662D01*
X015883Y001662D01*
X015942Y001721D01*
X015942Y002160D01*
X015883Y002218D01*
X015444Y002218D01*
X015386Y002160D01*
X015386Y001721D01*
X015386Y001797D02*
X015198Y001797D01*
X015198Y001876D02*
X015386Y001876D01*
X015386Y001954D02*
X015198Y001954D01*
X015198Y002033D02*
X015386Y002033D01*
X015386Y002111D02*
X015198Y002111D01*
X015164Y002190D02*
X015416Y002190D01*
X015912Y002190D02*
X020148Y002190D01*
X020176Y002218D02*
X020118Y002160D01*
X020118Y001721D01*
X020176Y001662D01*
X020615Y001662D01*
X020674Y001721D01*
X020674Y002160D01*
X020615Y002218D01*
X020176Y002218D01*
X020118Y002111D02*
X015942Y002111D01*
X015942Y002033D02*
X020118Y002033D01*
X020118Y001954D02*
X015942Y001954D01*
X015942Y001876D02*
X020118Y001876D01*
X020118Y001797D02*
X015942Y001797D01*
X015940Y001719D02*
X020120Y001719D01*
X020672Y001719D02*
X020862Y001719D01*
X020862Y001717D02*
X020920Y001658D01*
X021360Y001658D01*
X021418Y001717D01*
X021418Y002156D01*
X021360Y002214D01*
X020920Y002214D01*
X020862Y002156D01*
X020862Y001717D01*
X020862Y001797D02*
X020674Y001797D01*
X020674Y001876D02*
X020862Y001876D01*
X020862Y001954D02*
X020674Y001954D01*
X020674Y002033D02*
X020862Y002033D01*
X020862Y002111D02*
X020674Y002111D01*
X020644Y002190D02*
X020896Y002190D01*
X021384Y002190D02*
X025628Y002190D01*
X025653Y002214D02*
X025594Y002156D01*
X025594Y001717D01*
X025653Y001658D01*
X026092Y001658D01*
X026150Y001717D01*
X026150Y002156D01*
X026092Y002214D01*
X025653Y002214D01*
X025594Y002111D02*
X021418Y002111D01*
X021418Y002033D02*
X025594Y002033D01*
X025594Y001954D02*
X021418Y001954D01*
X021418Y001876D02*
X025594Y001876D01*
X025594Y001797D02*
X021418Y001797D01*
X021418Y001719D02*
X025594Y001719D01*
X026150Y001719D02*
X030061Y001719D01*
X030061Y001797D02*
X026150Y001797D01*
X026150Y001876D02*
X030061Y001876D01*
X030061Y001954D02*
X026150Y001954D01*
X026150Y002033D02*
X030061Y002033D01*
X030061Y002111D02*
X026150Y002111D01*
X026116Y002190D02*
X028451Y002190D01*
X028473Y002169D02*
X028568Y002129D01*
X028672Y002129D01*
X028767Y002169D01*
X028840Y002242D01*
X028880Y002337D01*
X028880Y002441D01*
X028840Y002536D01*
X028668Y002709D01*
X028840Y002882D01*
X028880Y002977D01*
X028880Y003081D01*
X028840Y003176D01*
X028767Y003249D01*
X028672Y003289D01*
X028568Y003289D01*
X028473Y003249D01*
X028192Y002969D01*
X025848Y002969D01*
X024379Y004438D01*
X024379Y004632D01*
X024320Y004691D01*
X023881Y004691D01*
X023823Y004632D01*
X023823Y004359D01*
X023712Y004249D01*
X019128Y004249D01*
X018902Y004474D01*
X018902Y004636D01*
X018844Y004695D01*
X018405Y004695D01*
X018346Y004636D01*
X018346Y004197D01*
X018405Y004139D01*
X018502Y004139D01*
X018517Y004117D01*
X018536Y004105D01*
X018873Y003769D01*
X018968Y003729D01*
X023872Y003729D01*
X023967Y003769D01*
X024040Y003842D01*
X024140Y003941D01*
X025593Y002489D01*
X025688Y002449D01*
X028192Y002449D01*
X028473Y002169D01*
X028373Y002268D02*
X000534Y002268D01*
X000534Y002347D02*
X028294Y002347D01*
X028216Y002425D02*
X000534Y002425D01*
X000534Y002504D02*
X025577Y002504D01*
X025499Y002582D02*
X000534Y002582D01*
X000534Y002661D02*
X025420Y002661D01*
X025342Y002739D02*
X000534Y002739D01*
X000534Y002818D02*
X025263Y002818D01*
X025185Y002896D02*
X000534Y002896D01*
X000534Y002975D02*
X025106Y002975D01*
X025028Y003053D02*
X000534Y003053D01*
X000534Y003132D02*
X024949Y003132D01*
X024871Y003210D02*
X000534Y003210D01*
X000534Y003289D02*
X024792Y003289D01*
X024714Y003367D02*
X000534Y003367D01*
X000534Y003446D02*
X024635Y003446D01*
X024557Y003524D02*
X004531Y003524D01*
X004494Y003509D02*
X004777Y003626D01*
X004993Y003843D01*
X005111Y004126D01*
X005111Y004432D01*
X004993Y004715D01*
X004777Y004932D01*
X004494Y005049D01*
X004188Y005049D01*
X003905Y004932D01*
X003688Y004715D01*
X003571Y004432D01*
X003571Y004126D01*
X003688Y003843D01*
X003905Y003626D01*
X004188Y003509D01*
X004494Y003509D01*
X004721Y003603D02*
X024478Y003603D01*
X024400Y003681D02*
X004832Y003681D01*
X004911Y003760D02*
X018893Y003760D01*
X018803Y003838D02*
X004989Y003838D01*
X005024Y003917D02*
X014414Y003917D01*
X014409Y003995D02*
X005057Y003995D01*
X005089Y004074D02*
X014409Y004074D01*
X014409Y004152D02*
X013385Y004152D01*
X013367Y004135D02*
X013426Y004193D01*
X013426Y004632D01*
X013367Y004691D01*
X012928Y004691D01*
X012870Y004632D01*
X012870Y004193D01*
X012928Y004135D01*
X013367Y004135D01*
X013426Y004231D02*
X014409Y004231D01*
X014409Y004309D02*
X013426Y004309D01*
X013426Y004388D02*
X014436Y004388D01*
X014649Y004466D02*
X013426Y004466D01*
X013426Y004545D02*
X014728Y004545D01*
X014807Y004623D02*
X013426Y004623D01*
X012870Y004623D02*
X007946Y004623D01*
X007946Y004636D02*
X007887Y004695D01*
X007448Y004695D01*
X007389Y004636D01*
X007389Y004197D01*
X007448Y004139D01*
X007887Y004139D01*
X007946Y004197D01*
X007946Y004636D01*
X007946Y004545D02*
X012870Y004545D01*
X012870Y004466D02*
X007946Y004466D01*
X007946Y004388D02*
X012870Y004388D01*
X012870Y004309D02*
X007946Y004309D01*
X007946Y004231D02*
X012870Y004231D01*
X012910Y004152D02*
X007901Y004152D01*
X007434Y004152D02*
X005111Y004152D01*
X005111Y004231D02*
X007389Y004231D01*
X007389Y004309D02*
X005111Y004309D01*
X005111Y004388D02*
X007389Y004388D01*
X007389Y004466D02*
X005096Y004466D01*
X005064Y004545D02*
X007389Y004545D01*
X007389Y004623D02*
X005031Y004623D01*
X004999Y004702D02*
X014885Y004702D01*
X014964Y004780D02*
X004928Y004780D01*
X004850Y004859D02*
X015042Y004859D01*
X015121Y004937D02*
X004763Y004937D01*
X004573Y005016D02*
X015199Y005016D01*
X015278Y005094D02*
X000534Y005094D01*
X000534Y005016D02*
X004108Y005016D01*
X003919Y004937D02*
X000534Y004937D01*
X000534Y004859D02*
X003832Y004859D01*
X003754Y004780D02*
X001512Y004780D01*
X001512Y004702D02*
X003683Y004702D01*
X003650Y004623D02*
X001512Y004623D01*
X001512Y004545D02*
X003618Y004545D01*
X003585Y004466D02*
X001512Y004466D01*
X001512Y004388D02*
X003571Y004388D01*
X003571Y004309D02*
X001512Y004309D01*
X001512Y004231D02*
X003571Y004231D01*
X003571Y004152D02*
X001512Y004152D01*
X001512Y004074D02*
X003592Y004074D01*
X003625Y003995D02*
X001512Y003995D01*
X001512Y003917D02*
X003657Y003917D01*
X003692Y003838D02*
X001512Y003838D01*
X001507Y003760D02*
X003771Y003760D01*
X003849Y003681D02*
X000534Y003681D01*
X000534Y003603D02*
X003961Y003603D01*
X004150Y003524D02*
X000534Y003524D01*
X000534Y005173D02*
X015356Y005173D01*
X015435Y005251D02*
X000534Y005251D01*
X000534Y005330D02*
X015513Y005330D01*
X015592Y005408D02*
X000534Y005408D01*
X000534Y005487D02*
X015670Y005487D01*
X015856Y004937D02*
X025817Y004937D01*
X025730Y004859D02*
X015778Y004859D01*
X015699Y004780D02*
X025651Y004780D01*
X025580Y004702D02*
X015621Y004702D01*
X015542Y004623D02*
X018346Y004623D01*
X018346Y004545D02*
X015464Y004545D01*
X015385Y004466D02*
X018346Y004466D01*
X018346Y004388D02*
X015307Y004388D01*
X015228Y004309D02*
X018346Y004309D01*
X018346Y004231D02*
X015150Y004231D01*
X015072Y004152D02*
X018391Y004152D01*
X018567Y004074D02*
X014991Y004074D01*
X014965Y003995D02*
X018646Y003995D01*
X018724Y003917D02*
X014961Y003917D01*
X018910Y004466D02*
X023823Y004466D01*
X023823Y004388D02*
X018989Y004388D01*
X019067Y004309D02*
X023773Y004309D01*
X024379Y004466D02*
X025483Y004466D01*
X025469Y004388D02*
X024429Y004388D01*
X024507Y004309D02*
X025469Y004309D01*
X025469Y004231D02*
X024586Y004231D01*
X024664Y004152D02*
X025469Y004152D01*
X025490Y004074D02*
X024743Y004074D01*
X024821Y003995D02*
X025522Y003995D01*
X025555Y003917D02*
X024900Y003917D01*
X024978Y003838D02*
X025590Y003838D01*
X025669Y003760D02*
X025057Y003760D01*
X025135Y003681D02*
X025747Y003681D01*
X025858Y003603D02*
X025214Y003603D01*
X025292Y003524D02*
X026048Y003524D01*
X026429Y003524D02*
X030061Y003524D01*
X030061Y003446D02*
X025371Y003446D01*
X025449Y003367D02*
X030061Y003367D01*
X030061Y003289D02*
X025528Y003289D01*
X025606Y003210D02*
X028434Y003210D01*
X028355Y003132D02*
X025685Y003132D01*
X025763Y003053D02*
X028277Y003053D01*
X028198Y002975D02*
X025842Y002975D01*
X026619Y003603D02*
X030061Y003603D01*
X030061Y003681D02*
X026730Y003681D01*
X026808Y003760D02*
X028173Y003760D01*
X028083Y003838D02*
X026887Y003838D01*
X026922Y003917D02*
X028004Y003917D01*
X027926Y003995D02*
X026954Y003995D01*
X026987Y004074D02*
X027847Y004074D01*
X027769Y004152D02*
X027008Y004152D01*
X027008Y004231D02*
X027690Y004231D01*
X027612Y004309D02*
X027008Y004309D01*
X027008Y004388D02*
X027533Y004388D01*
X027455Y004466D02*
X026994Y004466D01*
X026962Y004545D02*
X027376Y004545D01*
X027298Y004623D02*
X026929Y004623D01*
X026897Y004702D02*
X027219Y004702D01*
X027141Y004780D02*
X026826Y004780D01*
X026747Y004859D02*
X027062Y004859D01*
X026984Y004937D02*
X026660Y004937D01*
X027484Y005173D02*
X030061Y005173D01*
X030061Y005251D02*
X027405Y005251D01*
X027327Y005330D02*
X030061Y005330D01*
X030061Y005408D02*
X027248Y005408D01*
X027170Y005487D02*
X030061Y005487D01*
X030061Y005565D02*
X000534Y005565D01*
X000534Y005644D02*
X030061Y005644D01*
X030061Y005722D02*
X026881Y005722D01*
X026960Y005801D02*
X030061Y005801D01*
X030061Y005879D02*
X027038Y005879D01*
X027117Y005958D02*
X030061Y005958D01*
X030061Y006036D02*
X027195Y006036D01*
X027254Y006115D02*
X030061Y006115D01*
X030061Y006193D02*
X027280Y006193D01*
X027280Y006272D02*
X030061Y006272D01*
X030061Y006350D02*
X027280Y006350D01*
X027280Y006429D02*
X030061Y006429D01*
X030061Y006507D02*
X027281Y006507D01*
X027280Y006586D02*
X030061Y006586D01*
X030061Y006664D02*
X027254Y006664D01*
X027194Y006743D02*
X030061Y006743D01*
X030061Y006821D02*
X026131Y006821D01*
X026052Y006743D02*
X026331Y006743D01*
X026277Y006664D02*
X025974Y006664D01*
X025960Y006586D02*
X026255Y006586D01*
X026255Y006507D02*
X025930Y006507D01*
X025740Y006629D02*
X026860Y007749D01*
X026860Y007829D01*
X026837Y007528D02*
X030061Y007528D01*
X030061Y007606D02*
X028442Y007606D01*
X028522Y007685D02*
X030061Y007685D01*
X030061Y007764D02*
X028554Y007764D01*
X028560Y007842D02*
X030061Y007842D01*
X030061Y007921D02*
X028544Y007921D01*
X028498Y007999D02*
X030061Y007999D01*
X030061Y007449D02*
X026759Y007449D01*
X026680Y007371D02*
X030061Y007371D01*
X030061Y007292D02*
X026602Y007292D01*
X026523Y007214D02*
X030061Y007214D01*
X030061Y007135D02*
X026445Y007135D01*
X026366Y007057D02*
X030061Y007057D01*
X030061Y006978D02*
X026288Y006978D01*
X026209Y006900D02*
X030061Y006900D01*
X026811Y006743D02*
X026699Y006743D01*
X026753Y006664D02*
X026757Y006664D01*
X026743Y006429D02*
X026760Y006429D01*
X026760Y006350D02*
X026674Y006350D01*
X026695Y006272D02*
X026385Y006272D01*
X026356Y006350D02*
X026306Y006350D01*
X026287Y006429D02*
X026228Y006429D01*
X025550Y006507D02*
X017926Y006507D01*
X017926Y006429D02*
X024612Y006429D01*
X024534Y006350D02*
X017879Y006350D01*
X017867Y006339D02*
X017926Y006398D01*
X017926Y006837D01*
X017867Y006896D01*
X017428Y006896D01*
X017370Y006837D01*
X017370Y006398D01*
X017428Y006339D01*
X017867Y006339D01*
X017417Y006350D02*
X013146Y006350D01*
X013135Y006339D02*
X013194Y006398D01*
X013194Y006837D01*
X013135Y006896D01*
X012696Y006896D01*
X012637Y006837D01*
X012637Y006398D01*
X012696Y006339D01*
X013135Y006339D01*
X013194Y006429D02*
X017370Y006429D01*
X017370Y006507D02*
X013194Y006507D01*
X013194Y006586D02*
X017370Y006586D01*
X017370Y006664D02*
X013194Y006664D01*
X013194Y006743D02*
X017370Y006743D01*
X017370Y006821D02*
X013194Y006821D01*
X012637Y006821D02*
X000534Y006821D01*
X000534Y006743D02*
X012637Y006743D01*
X012637Y006664D02*
X000534Y006664D01*
X000534Y006586D02*
X012637Y006586D01*
X012637Y006507D02*
X000534Y006507D01*
X000534Y006429D02*
X012637Y006429D01*
X012685Y006350D02*
X000534Y006350D01*
X000534Y006272D02*
X024455Y006272D01*
X024261Y006193D02*
X000534Y006193D01*
X000534Y006115D02*
X024195Y006115D01*
X024164Y006036D02*
X000534Y006036D01*
X000534Y005958D02*
X024165Y005958D01*
X024189Y005879D02*
X000534Y005879D01*
X000534Y005801D02*
X024223Y005801D01*
X024279Y005722D02*
X000534Y005722D01*
X000534Y006900D02*
X025813Y006900D01*
X025892Y006978D02*
X000534Y006978D01*
X000534Y007057D02*
X025651Y007057D01*
X025648Y007059D02*
X025743Y007019D01*
X025847Y007019D01*
X025942Y007059D01*
X026015Y007132D01*
X026055Y007227D01*
X026055Y007331D01*
X026015Y007426D01*
X025942Y007499D01*
X025847Y007539D01*
X025743Y007539D01*
X025648Y007499D01*
X025575Y007426D01*
X025535Y007331D01*
X025535Y007227D01*
X025575Y007132D01*
X025648Y007059D01*
X025573Y007135D02*
X000534Y007135D01*
X000534Y007214D02*
X025540Y007214D01*
X025535Y007292D02*
X000534Y007292D01*
X000534Y007371D02*
X025552Y007371D01*
X025598Y007449D02*
X000534Y007449D01*
X000534Y007528D02*
X025717Y007528D01*
X025873Y007528D02*
X026441Y007528D01*
X026363Y007449D02*
X025992Y007449D01*
X026038Y007371D02*
X026284Y007371D01*
X026206Y007292D02*
X026055Y007292D01*
X026050Y007214D02*
X026127Y007214D01*
X026049Y007135D02*
X026017Y007135D01*
X025970Y007057D02*
X025939Y007057D01*
X025621Y006821D02*
X017926Y006821D01*
X017926Y006743D02*
X025543Y006743D01*
X025520Y006664D02*
X017926Y006664D01*
X017926Y006586D02*
X025520Y006586D01*
X026463Y006193D02*
X026617Y006193D01*
X025963Y005958D02*
X024877Y005958D01*
X024798Y005879D02*
X026042Y005879D01*
X026120Y005801D02*
X024720Y005801D01*
X024641Y005722D02*
X026199Y005722D01*
X027562Y005094D02*
X030061Y005094D01*
X030061Y005016D02*
X027641Y005016D01*
X027719Y004937D02*
X030061Y004937D01*
X030061Y004859D02*
X027798Y004859D01*
X027876Y004780D02*
X029068Y004780D01*
X029068Y004702D02*
X027955Y004702D01*
X028033Y004623D02*
X029068Y004623D01*
X029068Y004545D02*
X028112Y004545D01*
X028190Y004466D02*
X029068Y004466D01*
X029068Y004388D02*
X028269Y004388D01*
X028347Y004309D02*
X029068Y004309D01*
X029068Y004231D02*
X029035Y004231D01*
X029067Y003760D02*
X029073Y003760D01*
X028806Y003210D02*
X030061Y003210D01*
X030061Y003132D02*
X028859Y003132D01*
X028880Y003053D02*
X030061Y003053D01*
X030061Y002975D02*
X028879Y002975D01*
X028847Y002896D02*
X030061Y002896D01*
X030061Y002818D02*
X028777Y002818D01*
X028698Y002739D02*
X030061Y002739D01*
X030061Y002661D02*
X028716Y002661D01*
X028794Y002582D02*
X030061Y002582D01*
X030061Y002504D02*
X028854Y002504D01*
X028880Y002425D02*
X030061Y002425D01*
X030061Y002347D02*
X028880Y002347D01*
X028852Y002268D02*
X030061Y002268D01*
X030061Y002190D02*
X028789Y002190D01*
X024321Y003760D02*
X023947Y003760D01*
X024037Y003838D02*
X024243Y003838D01*
X024164Y003917D02*
X024116Y003917D01*
X024379Y004545D02*
X025515Y004545D01*
X025548Y004623D02*
X024379Y004623D01*
X023823Y004623D02*
X018902Y004623D01*
X018902Y004545D02*
X023823Y004545D01*
X025918Y007606D02*
X000534Y007606D01*
X000534Y007685D02*
X025838Y007685D01*
X025806Y007764D02*
X000534Y007764D01*
X000534Y007842D02*
X025800Y007842D01*
X025816Y007921D02*
X000534Y007921D01*
X000534Y007999D02*
X025862Y007999D01*
D11*
X029640Y004279D03*
X000939Y004279D03*
D12*
X003711Y004279D02*
X003713Y004329D01*
X003719Y004379D01*
X003729Y004428D01*
X003743Y004476D01*
X003760Y004523D01*
X003781Y004568D01*
X003806Y004612D01*
X003834Y004653D01*
X003866Y004692D01*
X003900Y004729D01*
X003937Y004763D01*
X003977Y004793D01*
X004019Y004820D01*
X004063Y004844D01*
X004109Y004865D01*
X004156Y004881D01*
X004204Y004894D01*
X004254Y004903D01*
X004303Y004908D01*
X004354Y004909D01*
X004404Y004906D01*
X004453Y004899D01*
X004502Y004888D01*
X004550Y004873D01*
X004596Y004855D01*
X004641Y004833D01*
X004684Y004807D01*
X004725Y004778D01*
X004764Y004746D01*
X004800Y004711D01*
X004832Y004673D01*
X004862Y004633D01*
X004889Y004590D01*
X004912Y004546D01*
X004931Y004500D01*
X004947Y004452D01*
X004959Y004403D01*
X004967Y004354D01*
X004971Y004304D01*
X004971Y004254D01*
X004967Y004204D01*
X004959Y004155D01*
X004947Y004106D01*
X004931Y004058D01*
X004912Y004012D01*
X004889Y003968D01*
X004862Y003925D01*
X004832Y003885D01*
X004800Y003847D01*
X004764Y003812D01*
X004725Y003780D01*
X004684Y003751D01*
X004641Y003725D01*
X004596Y003703D01*
X004550Y003685D01*
X004502Y003670D01*
X004453Y003659D01*
X004404Y003652D01*
X004354Y003649D01*
X004303Y003650D01*
X004254Y003655D01*
X004204Y003664D01*
X004156Y003677D01*
X004109Y003693D01*
X004063Y003714D01*
X004019Y003738D01*
X003977Y003765D01*
X003937Y003795D01*
X003900Y003829D01*
X003866Y003866D01*
X003834Y003905D01*
X003806Y003946D01*
X003781Y003990D01*
X003760Y004035D01*
X003743Y004082D01*
X003729Y004130D01*
X003719Y004179D01*
X003713Y004229D01*
X003711Y004279D01*
X025608Y004279D02*
X025610Y004329D01*
X025616Y004379D01*
X025626Y004428D01*
X025640Y004476D01*
X025657Y004523D01*
X025678Y004568D01*
X025703Y004612D01*
X025731Y004653D01*
X025763Y004692D01*
X025797Y004729D01*
X025834Y004763D01*
X025874Y004793D01*
X025916Y004820D01*
X025960Y004844D01*
X026006Y004865D01*
X026053Y004881D01*
X026101Y004894D01*
X026151Y004903D01*
X026200Y004908D01*
X026251Y004909D01*
X026301Y004906D01*
X026350Y004899D01*
X026399Y004888D01*
X026447Y004873D01*
X026493Y004855D01*
X026538Y004833D01*
X026581Y004807D01*
X026622Y004778D01*
X026661Y004746D01*
X026697Y004711D01*
X026729Y004673D01*
X026759Y004633D01*
X026786Y004590D01*
X026809Y004546D01*
X026828Y004500D01*
X026844Y004452D01*
X026856Y004403D01*
X026864Y004354D01*
X026868Y004304D01*
X026868Y004254D01*
X026864Y004204D01*
X026856Y004155D01*
X026844Y004106D01*
X026828Y004058D01*
X026809Y004012D01*
X026786Y003968D01*
X026759Y003925D01*
X026729Y003885D01*
X026697Y003847D01*
X026661Y003812D01*
X026622Y003780D01*
X026581Y003751D01*
X026538Y003725D01*
X026493Y003703D01*
X026447Y003685D01*
X026399Y003670D01*
X026350Y003659D01*
X026301Y003652D01*
X026251Y003649D01*
X026200Y003650D01*
X026151Y003655D01*
X026101Y003664D01*
X026053Y003677D01*
X026006Y003693D01*
X025960Y003714D01*
X025916Y003738D01*
X025874Y003765D01*
X025834Y003795D01*
X025797Y003829D01*
X025763Y003866D01*
X025731Y003905D01*
X025703Y003946D01*
X025678Y003990D01*
X025657Y004035D01*
X025640Y004082D01*
X025626Y004130D01*
X025616Y004179D01*
X025610Y004229D01*
X025608Y004279D01*
D13*
X027582Y005449D03*
X027782Y005879D03*
X027572Y006309D03*
X026995Y006559D03*
X026515Y006559D03*
X024425Y005989D03*
X025795Y007279D03*
X026460Y001029D03*
D14*
X025872Y001936D03*
X021140Y001936D03*
X020396Y001940D03*
X015664Y001940D03*
X014920Y001936D03*
X010187Y001936D03*
X009439Y001940D03*
X004707Y001940D03*
X006486Y004417D03*
X007668Y004417D03*
X011967Y004413D03*
X013148Y004413D03*
X014687Y004141D03*
X015868Y004141D03*
X017443Y004417D03*
X018624Y004417D03*
X022920Y004413D03*
X024101Y004413D03*
X017648Y006617D03*
X012916Y006617D03*
D15*
X014860Y004309D02*
X015820Y005269D01*
X027020Y005269D01*
X028300Y003989D01*
X028940Y003989D01*
X028620Y003029D02*
X028300Y002709D01*
X025740Y002709D01*
X024140Y004309D01*
X024101Y004413D01*
X024140Y004309D02*
X023820Y003989D01*
X019020Y003989D01*
X018700Y004309D01*
X018624Y004417D01*
X014860Y004309D02*
X014687Y004141D01*
X024425Y005989D02*
X024460Y005909D01*
X024780Y006229D01*
X026060Y006229D01*
X026380Y005909D01*
X026700Y005909D01*
X027020Y006229D01*
X027020Y006549D01*
X026995Y006559D01*
X026860Y007829D02*
X026060Y007829D01*
X026860Y007829D02*
X028300Y007829D01*
X028300Y002709D02*
X028620Y002389D01*
D16*
X028620Y002389D03*
X028620Y003029D03*
X028940Y003989D03*
X025740Y006629D03*
X026060Y007829D03*
X028300Y007829D03*
M02*
