G75*
G70*
%OFA0B0*%
%FSLAX24Y24*%
%IPPOS*%
%LPD*%
%AMOC8*
5,1,8,0,0,1.08239X$1,22.5*
%
%ADD10C,0.0080*%
%ADD11C,0.0000*%
D10*
X000140Y000149D02*
X000140Y008409D01*
X030439Y008409D01*
X030439Y000149D01*
X000140Y000149D01*
D11*
X003711Y004279D02*
X003713Y004329D01*
X003719Y004379D01*
X003729Y004428D01*
X003743Y004476D01*
X003760Y004523D01*
X003781Y004568D01*
X003806Y004612D01*
X003834Y004653D01*
X003866Y004692D01*
X003900Y004729D01*
X003937Y004763D01*
X003977Y004793D01*
X004019Y004820D01*
X004063Y004844D01*
X004109Y004865D01*
X004156Y004881D01*
X004204Y004894D01*
X004254Y004903D01*
X004303Y004908D01*
X004354Y004909D01*
X004404Y004906D01*
X004453Y004899D01*
X004502Y004888D01*
X004550Y004873D01*
X004596Y004855D01*
X004641Y004833D01*
X004684Y004807D01*
X004725Y004778D01*
X004764Y004746D01*
X004800Y004711D01*
X004832Y004673D01*
X004862Y004633D01*
X004889Y004590D01*
X004912Y004546D01*
X004931Y004500D01*
X004947Y004452D01*
X004959Y004403D01*
X004967Y004354D01*
X004971Y004304D01*
X004971Y004254D01*
X004967Y004204D01*
X004959Y004155D01*
X004947Y004106D01*
X004931Y004058D01*
X004912Y004012D01*
X004889Y003968D01*
X004862Y003925D01*
X004832Y003885D01*
X004800Y003847D01*
X004764Y003812D01*
X004725Y003780D01*
X004684Y003751D01*
X004641Y003725D01*
X004596Y003703D01*
X004550Y003685D01*
X004502Y003670D01*
X004453Y003659D01*
X004404Y003652D01*
X004354Y003649D01*
X004303Y003650D01*
X004254Y003655D01*
X004204Y003664D01*
X004156Y003677D01*
X004109Y003693D01*
X004063Y003714D01*
X004019Y003738D01*
X003977Y003765D01*
X003937Y003795D01*
X003900Y003829D01*
X003866Y003866D01*
X003834Y003905D01*
X003806Y003946D01*
X003781Y003990D01*
X003760Y004035D01*
X003743Y004082D01*
X003729Y004130D01*
X003719Y004179D01*
X003713Y004229D01*
X003711Y004279D01*
X025608Y004279D02*
X025610Y004329D01*
X025616Y004379D01*
X025626Y004428D01*
X025640Y004476D01*
X025657Y004523D01*
X025678Y004568D01*
X025703Y004612D01*
X025731Y004653D01*
X025763Y004692D01*
X025797Y004729D01*
X025834Y004763D01*
X025874Y004793D01*
X025916Y004820D01*
X025960Y004844D01*
X026006Y004865D01*
X026053Y004881D01*
X026101Y004894D01*
X026151Y004903D01*
X026200Y004908D01*
X026251Y004909D01*
X026301Y004906D01*
X026350Y004899D01*
X026399Y004888D01*
X026447Y004873D01*
X026493Y004855D01*
X026538Y004833D01*
X026581Y004807D01*
X026622Y004778D01*
X026661Y004746D01*
X026697Y004711D01*
X026729Y004673D01*
X026759Y004633D01*
X026786Y004590D01*
X026809Y004546D01*
X026828Y004500D01*
X026844Y004452D01*
X026856Y004403D01*
X026864Y004354D01*
X026868Y004304D01*
X026868Y004254D01*
X026864Y004204D01*
X026856Y004155D01*
X026844Y004106D01*
X026828Y004058D01*
X026809Y004012D01*
X026786Y003968D01*
X026759Y003925D01*
X026729Y003885D01*
X026697Y003847D01*
X026661Y003812D01*
X026622Y003780D01*
X026581Y003751D01*
X026538Y003725D01*
X026493Y003703D01*
X026447Y003685D01*
X026399Y003670D01*
X026350Y003659D01*
X026301Y003652D01*
X026251Y003649D01*
X026200Y003650D01*
X026151Y003655D01*
X026101Y003664D01*
X026053Y003677D01*
X026006Y003693D01*
X025960Y003714D01*
X025916Y003738D01*
X025874Y003765D01*
X025834Y003795D01*
X025797Y003829D01*
X025763Y003866D01*
X025731Y003905D01*
X025703Y003946D01*
X025678Y003990D01*
X025657Y004035D01*
X025640Y004082D01*
X025626Y004130D01*
X025616Y004179D01*
X025610Y004229D01*
X025608Y004279D01*
M02*
