G75*
G70*
%OFA0B0*%
%FSLAX24Y24*%
%IPPOS*%
%LPD*%
%AMOC8*
5,1,8,0,0,1.08239X$1,22.5*
%
%ADD10C,0.0080*%
%ADD11R,0.0355X0.0512*%
%ADD12R,0.0375X0.0157*%
%ADD13R,0.0690X0.0985*%
%ADD14R,0.0150X0.0316*%
%ADD15R,0.0394X0.0316*%
%ADD16R,0.0316X0.0394*%
%ADD17R,0.0670X0.0749*%
%ADD18R,0.0512X0.0827*%
%ADD19R,0.0512X0.0355*%
%ADD20R,0.0355X0.0355*%
%ADD21R,0.0985X0.0985*%
%ADD22C,0.0000*%
%ADD23C,0.1300*%
%ADD24R,0.1390X0.0690*%
%ADD25R,0.0540X0.1190*%
%ADD26R,0.0237X0.0138*%
%ADD27R,0.0371X0.0985*%
%ADD28R,0.0512X0.0512*%
%ADD29R,0.0631X0.0670*%
%ADD30R,0.0827X0.0434*%
%ADD31R,0.0394X0.0197*%
D10*
X000140Y000149D02*
X000140Y008409D01*
X030439Y008409D01*
X030439Y000149D01*
X000140Y000149D01*
D11*
X027888Y004619D03*
X028597Y004619D03*
D12*
X028273Y005426D03*
X028273Y005623D03*
X028273Y005819D03*
X028273Y006016D03*
X028273Y006213D03*
X027112Y006213D03*
X027112Y006016D03*
X027112Y005819D03*
X027112Y005623D03*
X027112Y005426D03*
D13*
X027692Y005819D03*
D14*
X027594Y006410D03*
X027791Y006410D03*
X027791Y005229D03*
X027594Y005229D03*
D15*
X024992Y005375D03*
X024992Y004864D03*
X024992Y006114D03*
X024992Y006625D03*
X024992Y007364D03*
X024992Y007875D03*
X026672Y007875D03*
X026672Y007364D03*
X029179Y002844D03*
X029882Y002858D03*
X029882Y002346D03*
X029179Y002332D03*
X026920Y001484D03*
X026920Y000972D03*
D16*
X027907Y003939D03*
X028418Y003939D03*
D17*
X028794Y007339D03*
X027691Y007339D03*
D18*
X028793Y006269D03*
X030052Y006269D03*
D19*
X028191Y002740D03*
X027414Y002740D03*
X027414Y002031D03*
X028191Y002031D03*
D20*
X029040Y001614D03*
X029892Y001314D03*
X029040Y001023D03*
X029892Y000724D03*
D21*
X029640Y004279D03*
X000939Y004279D03*
D22*
X003711Y004279D02*
X003713Y004329D01*
X003719Y004379D01*
X003729Y004428D01*
X003743Y004476D01*
X003760Y004523D01*
X003781Y004568D01*
X003806Y004612D01*
X003834Y004653D01*
X003866Y004692D01*
X003900Y004729D01*
X003937Y004763D01*
X003977Y004793D01*
X004019Y004820D01*
X004063Y004844D01*
X004109Y004865D01*
X004156Y004881D01*
X004204Y004894D01*
X004254Y004903D01*
X004303Y004908D01*
X004354Y004909D01*
X004404Y004906D01*
X004453Y004899D01*
X004502Y004888D01*
X004550Y004873D01*
X004596Y004855D01*
X004641Y004833D01*
X004684Y004807D01*
X004725Y004778D01*
X004764Y004746D01*
X004800Y004711D01*
X004832Y004673D01*
X004862Y004633D01*
X004889Y004590D01*
X004912Y004546D01*
X004931Y004500D01*
X004947Y004452D01*
X004959Y004403D01*
X004967Y004354D01*
X004971Y004304D01*
X004971Y004254D01*
X004967Y004204D01*
X004959Y004155D01*
X004947Y004106D01*
X004931Y004058D01*
X004912Y004012D01*
X004889Y003968D01*
X004862Y003925D01*
X004832Y003885D01*
X004800Y003847D01*
X004764Y003812D01*
X004725Y003780D01*
X004684Y003751D01*
X004641Y003725D01*
X004596Y003703D01*
X004550Y003685D01*
X004502Y003670D01*
X004453Y003659D01*
X004404Y003652D01*
X004354Y003649D01*
X004303Y003650D01*
X004254Y003655D01*
X004204Y003664D01*
X004156Y003677D01*
X004109Y003693D01*
X004063Y003714D01*
X004019Y003738D01*
X003977Y003765D01*
X003937Y003795D01*
X003900Y003829D01*
X003866Y003866D01*
X003834Y003905D01*
X003806Y003946D01*
X003781Y003990D01*
X003760Y004035D01*
X003743Y004082D01*
X003729Y004130D01*
X003719Y004179D01*
X003713Y004229D01*
X003711Y004279D01*
X025608Y004279D02*
X025610Y004329D01*
X025616Y004379D01*
X025626Y004428D01*
X025640Y004476D01*
X025657Y004523D01*
X025678Y004568D01*
X025703Y004612D01*
X025731Y004653D01*
X025763Y004692D01*
X025797Y004729D01*
X025834Y004763D01*
X025874Y004793D01*
X025916Y004820D01*
X025960Y004844D01*
X026006Y004865D01*
X026053Y004881D01*
X026101Y004894D01*
X026151Y004903D01*
X026200Y004908D01*
X026251Y004909D01*
X026301Y004906D01*
X026350Y004899D01*
X026399Y004888D01*
X026447Y004873D01*
X026493Y004855D01*
X026538Y004833D01*
X026581Y004807D01*
X026622Y004778D01*
X026661Y004746D01*
X026697Y004711D01*
X026729Y004673D01*
X026759Y004633D01*
X026786Y004590D01*
X026809Y004546D01*
X026828Y004500D01*
X026844Y004452D01*
X026856Y004403D01*
X026864Y004354D01*
X026868Y004304D01*
X026868Y004254D01*
X026864Y004204D01*
X026856Y004155D01*
X026844Y004106D01*
X026828Y004058D01*
X026809Y004012D01*
X026786Y003968D01*
X026759Y003925D01*
X026729Y003885D01*
X026697Y003847D01*
X026661Y003812D01*
X026622Y003780D01*
X026581Y003751D01*
X026538Y003725D01*
X026493Y003703D01*
X026447Y003685D01*
X026399Y003670D01*
X026350Y003659D01*
X026301Y003652D01*
X026251Y003649D01*
X026200Y003650D01*
X026151Y003655D01*
X026101Y003664D01*
X026053Y003677D01*
X026006Y003693D01*
X025960Y003714D01*
X025916Y003738D01*
X025874Y003765D01*
X025834Y003795D01*
X025797Y003829D01*
X025763Y003866D01*
X025731Y003905D01*
X025703Y003946D01*
X025678Y003990D01*
X025657Y004035D01*
X025640Y004082D01*
X025626Y004130D01*
X025616Y004179D01*
X025610Y004229D01*
X025608Y004279D01*
D23*
X026238Y004279D03*
X004341Y004279D03*
D24*
X005056Y001940D03*
X009100Y001940D03*
X010531Y001940D03*
X014574Y001940D03*
X016005Y001940D03*
X020048Y001940D03*
X021480Y001940D03*
X025523Y001940D03*
X017311Y006617D03*
X013268Y006617D03*
D25*
X014699Y004460D03*
X015880Y004460D03*
X017436Y004098D03*
X018617Y004098D03*
X022911Y004098D03*
X024092Y004098D03*
X013143Y004098D03*
X011962Y004098D03*
X007669Y004098D03*
X006487Y004098D03*
D26*
X027516Y001543D03*
X027516Y001346D03*
X027516Y001149D03*
X027516Y000952D03*
X027516Y000755D03*
X028264Y000755D03*
X028264Y000952D03*
X028264Y001149D03*
X028264Y001346D03*
X028264Y001543D03*
D27*
X027890Y001149D03*
D28*
X020931Y005130D03*
X020931Y005918D03*
D29*
X022211Y005524D03*
D30*
X022865Y006649D03*
X024165Y007649D03*
D31*
X023948Y005655D03*
X023082Y005655D03*
X023082Y005399D03*
X023082Y005143D03*
X023948Y005143D03*
M02*
