%
M48
M72
T01C0.0120
T02C0.0200
T03C0.0236
T04C0.0630
T05C0.1260
%
T01
X28940Y3989
X28620Y2389
X28620Y3029
X28300Y7829
X26060Y7829
X25740Y6629
T02
X26515Y6559
X25795Y7279
X27782Y5879
X27582Y5449
X27572Y6309
X26460Y1029
X26995Y6559
X24425Y5989
T03
X6486Y4417
X11967Y4413
X17443Y4417
X22920Y4413
X15868Y4141
X14687Y4141
X7668Y4417
X13148Y4413
X18624Y4417
X24101Y4413
X4707Y1940
X9439Y1940
X10187Y1936
X14920Y1936
X15664Y1940
X20396Y1940
X21140Y1936
X25872Y1936
X17648Y6617
X12916Y6617
T04
X939Y4279
X29640Y4279
T05
X4341Y4279
X26238Y4279
M30
