G75*
G70*
%OFA0B0*%
%FSLAX24Y24*%
%IPPOS*%
%LPD*%
%AMOC8*
5,1,8,0,0,1.08239X$1,22.5*
%
%ADD10C,0.0080*%
%ADD11R,0.0315X0.0472*%
%ADD12R,0.0335X0.0117*%
%ADD13R,0.0650X0.0945*%
%ADD14R,0.0110X0.0276*%
%ADD15R,0.0354X0.0276*%
%ADD16R,0.0276X0.0354*%
%ADD17R,0.0630X0.0709*%
%ADD18R,0.0472X0.0787*%
%ADD19R,0.0472X0.0315*%
%ADD20R,0.0315X0.0315*%
%ADD21R,0.0945X0.0945*%
%ADD22C,0.0000*%
%ADD23R,0.1350X0.0650*%
%ADD24R,0.0500X0.1150*%
%ADD25R,0.0197X0.0098*%
%ADD26R,0.0331X0.0945*%
%ADD27R,0.0472X0.0472*%
%ADD28R,0.0591X0.0630*%
%ADD29R,0.0787X0.0394*%
%ADD30R,0.0354X0.0157*%
%ADD31C,0.0120*%
%ADD32C,0.0320*%
%ADD33C,0.0320*%
%ADD34C,0.0240*%
%ADD35C,0.0100*%
%ADD36R,0.0356X0.0356*%
%ADD37C,0.0160*%
%ADD38C,0.0240*%
D10*
X000140Y000149D02*
X000140Y008409D01*
X030439Y008409D01*
X030439Y000149D01*
X000140Y000149D01*
X006487Y004098D02*
X006540Y004149D01*
X007669Y004098D02*
X007740Y004149D01*
X011900Y004149D02*
X011962Y004098D01*
X011980Y004069D01*
X013100Y004149D02*
X013143Y004098D01*
X014700Y004389D02*
X014699Y004460D01*
X015880Y004460D02*
X015900Y004389D01*
X017420Y004069D02*
X017436Y004098D01*
X018540Y004149D02*
X018617Y004098D01*
X018620Y004149D01*
X022860Y004069D02*
X022911Y004098D01*
X022940Y004149D01*
X024060Y004149D02*
X024092Y004098D01*
X024140Y004069D01*
X027402Y004074D02*
X027972Y004074D01*
X027972Y004152D02*
X027402Y004152D01*
X027402Y004231D02*
X027972Y004231D01*
X027972Y004309D02*
X027402Y004309D01*
X027402Y004388D02*
X027972Y004388D01*
X027972Y004466D02*
X027402Y004466D01*
X027402Y004545D02*
X027972Y004545D01*
X027972Y004623D02*
X027402Y004623D01*
X027402Y004702D02*
X027972Y004702D01*
X027972Y004780D02*
X027402Y004780D01*
X027402Y004859D02*
X027972Y004859D01*
X027972Y004937D02*
X027402Y004937D01*
X027402Y005016D02*
X027972Y005016D01*
X027972Y005094D02*
X027402Y005094D01*
X027402Y005173D02*
X027972Y005173D01*
X027972Y005251D02*
X027402Y005251D01*
X027402Y005264D02*
X027439Y005301D01*
X027439Y006338D01*
X027402Y006374D01*
X027402Y007569D01*
X027972Y007569D01*
X027972Y006364D01*
X027946Y006338D01*
X027946Y006088D01*
X027972Y006062D01*
X027972Y005971D01*
X027946Y005944D01*
X027946Y005301D01*
X027972Y005274D01*
X027972Y003619D01*
X027402Y003609D01*
X027402Y005264D01*
X027439Y005330D02*
X027946Y005330D01*
X027946Y005408D02*
X027439Y005408D01*
X027439Y005487D02*
X027946Y005487D01*
X027946Y005565D02*
X027439Y005565D01*
X027439Y005644D02*
X027946Y005644D01*
X027946Y005722D02*
X027439Y005722D01*
X027439Y005801D02*
X027946Y005801D01*
X027946Y005879D02*
X027439Y005879D01*
X027439Y005958D02*
X027960Y005958D01*
X027972Y006036D02*
X027439Y006036D01*
X027439Y006115D02*
X027946Y006115D01*
X027946Y006193D02*
X027439Y006193D01*
X027439Y006272D02*
X027946Y006272D01*
X027959Y006350D02*
X027426Y006350D01*
X027402Y006429D02*
X027972Y006429D01*
X027972Y006507D02*
X027402Y006507D01*
X027402Y006586D02*
X027972Y006586D01*
X027972Y006664D02*
X027402Y006664D01*
X027402Y006743D02*
X027972Y006743D01*
X027972Y006821D02*
X027402Y006821D01*
X027402Y006900D02*
X027972Y006900D01*
X027972Y006978D02*
X027402Y006978D01*
X027402Y007057D02*
X027972Y007057D01*
X027972Y007135D02*
X027402Y007135D01*
X027402Y007214D02*
X027972Y007214D01*
X027972Y007292D02*
X027402Y007292D01*
X027402Y007371D02*
X027972Y007371D01*
X027972Y007449D02*
X027402Y007449D01*
X027402Y007528D02*
X027972Y007528D01*
X028422Y007739D02*
X028435Y007759D01*
X026672Y007364D02*
X026585Y007359D01*
X025020Y007349D02*
X024992Y007364D01*
X024220Y007669D02*
X024165Y007649D01*
X024140Y007589D01*
X024060Y007509D01*
X024940Y007829D02*
X024992Y007875D01*
X025740Y006629D02*
X025740Y005829D01*
X027100Y005829D01*
X027112Y005819D01*
X027100Y005989D02*
X026620Y005989D01*
X026620Y006469D01*
X026515Y006559D01*
X027020Y006229D02*
X027100Y006229D01*
X027112Y006213D01*
X027075Y006239D01*
X027112Y006016D02*
X027100Y005989D01*
X027075Y005999D02*
X027112Y006016D01*
X028273Y005819D02*
X028300Y005829D01*
X028540Y005829D01*
X028540Y005909D01*
X028780Y006149D01*
X028780Y006229D01*
X028793Y006269D01*
X028745Y005623D02*
X028745Y005599D01*
X028700Y005589D02*
X028300Y005589D01*
X028273Y005623D01*
X027112Y005623D02*
X025100Y005623D01*
X025100Y005649D01*
X023980Y005669D02*
X023948Y005655D01*
X027100Y005429D02*
X027112Y005426D01*
X028300Y004069D02*
X028360Y004009D01*
X028380Y003989D01*
X027972Y003995D02*
X027402Y003995D01*
X027402Y003917D02*
X027972Y003917D01*
X027972Y003838D02*
X027402Y003838D01*
X027402Y003760D02*
X027972Y003760D01*
X027972Y003681D02*
X027402Y003681D01*
X029180Y002869D02*
X029179Y002844D01*
X028220Y002069D02*
X028191Y002031D01*
X028140Y002069D01*
X027500Y001589D02*
X027516Y001543D01*
X027020Y001429D02*
X026920Y001484D01*
X026920Y001349D01*
X027500Y001349D01*
X027516Y001346D01*
X027020Y001349D02*
X027020Y001429D01*
X027516Y001149D02*
X027500Y001109D01*
X026940Y001109D01*
X026920Y000972D01*
X028264Y001149D02*
X028300Y001189D01*
X029020Y001189D01*
X029020Y001029D01*
X029040Y001023D01*
X028300Y000789D02*
X028264Y000755D01*
D11*
X028597Y004619D03*
X027888Y004619D03*
D12*
X028273Y005426D03*
X028273Y005623D03*
X028273Y005819D03*
X028273Y006016D03*
X028273Y006213D03*
X027112Y006213D03*
X027112Y006016D03*
X027112Y005819D03*
X027112Y005623D03*
X027112Y005426D03*
D13*
X027692Y005819D03*
D14*
X027594Y006410D03*
X027791Y006410D03*
X027791Y005229D03*
X027594Y005229D03*
D15*
X024992Y005375D03*
X024992Y004864D03*
X024992Y006114D03*
X024992Y006625D03*
X024992Y007364D03*
X024992Y007875D03*
X026672Y007875D03*
X026672Y007364D03*
X029179Y002844D03*
X029882Y002858D03*
X029882Y002346D03*
X029179Y002332D03*
X026920Y001484D03*
X026920Y000972D03*
D16*
X027907Y003939D03*
X028418Y003939D03*
D17*
X028794Y007339D03*
X027691Y007339D03*
D18*
X028793Y006269D03*
X030052Y006269D03*
D19*
X028191Y002740D03*
X027414Y002740D03*
X027414Y002031D03*
X028191Y002031D03*
D20*
X029040Y001614D03*
X029892Y001314D03*
X029040Y001023D03*
X029892Y000724D03*
D21*
X029640Y004279D03*
X000939Y004279D03*
D22*
X003711Y004279D02*
X003713Y004329D01*
X003719Y004379D01*
X003729Y004428D01*
X003743Y004476D01*
X003760Y004523D01*
X003781Y004568D01*
X003806Y004612D01*
X003834Y004653D01*
X003866Y004692D01*
X003900Y004729D01*
X003937Y004763D01*
X003977Y004793D01*
X004019Y004820D01*
X004063Y004844D01*
X004109Y004865D01*
X004156Y004881D01*
X004204Y004894D01*
X004254Y004903D01*
X004303Y004908D01*
X004354Y004909D01*
X004404Y004906D01*
X004453Y004899D01*
X004502Y004888D01*
X004550Y004873D01*
X004596Y004855D01*
X004641Y004833D01*
X004684Y004807D01*
X004725Y004778D01*
X004764Y004746D01*
X004800Y004711D01*
X004832Y004673D01*
X004862Y004633D01*
X004889Y004590D01*
X004912Y004546D01*
X004931Y004500D01*
X004947Y004452D01*
X004959Y004403D01*
X004967Y004354D01*
X004971Y004304D01*
X004971Y004254D01*
X004967Y004204D01*
X004959Y004155D01*
X004947Y004106D01*
X004931Y004058D01*
X004912Y004012D01*
X004889Y003968D01*
X004862Y003925D01*
X004832Y003885D01*
X004800Y003847D01*
X004764Y003812D01*
X004725Y003780D01*
X004684Y003751D01*
X004641Y003725D01*
X004596Y003703D01*
X004550Y003685D01*
X004502Y003670D01*
X004453Y003659D01*
X004404Y003652D01*
X004354Y003649D01*
X004303Y003650D01*
X004254Y003655D01*
X004204Y003664D01*
X004156Y003677D01*
X004109Y003693D01*
X004063Y003714D01*
X004019Y003738D01*
X003977Y003765D01*
X003937Y003795D01*
X003900Y003829D01*
X003866Y003866D01*
X003834Y003905D01*
X003806Y003946D01*
X003781Y003990D01*
X003760Y004035D01*
X003743Y004082D01*
X003729Y004130D01*
X003719Y004179D01*
X003713Y004229D01*
X003711Y004279D01*
X025608Y004279D02*
X025610Y004329D01*
X025616Y004379D01*
X025626Y004428D01*
X025640Y004476D01*
X025657Y004523D01*
X025678Y004568D01*
X025703Y004612D01*
X025731Y004653D01*
X025763Y004692D01*
X025797Y004729D01*
X025834Y004763D01*
X025874Y004793D01*
X025916Y004820D01*
X025960Y004844D01*
X026006Y004865D01*
X026053Y004881D01*
X026101Y004894D01*
X026151Y004903D01*
X026200Y004908D01*
X026251Y004909D01*
X026301Y004906D01*
X026350Y004899D01*
X026399Y004888D01*
X026447Y004873D01*
X026493Y004855D01*
X026538Y004833D01*
X026581Y004807D01*
X026622Y004778D01*
X026661Y004746D01*
X026697Y004711D01*
X026729Y004673D01*
X026759Y004633D01*
X026786Y004590D01*
X026809Y004546D01*
X026828Y004500D01*
X026844Y004452D01*
X026856Y004403D01*
X026864Y004354D01*
X026868Y004304D01*
X026868Y004254D01*
X026864Y004204D01*
X026856Y004155D01*
X026844Y004106D01*
X026828Y004058D01*
X026809Y004012D01*
X026786Y003968D01*
X026759Y003925D01*
X026729Y003885D01*
X026697Y003847D01*
X026661Y003812D01*
X026622Y003780D01*
X026581Y003751D01*
X026538Y003725D01*
X026493Y003703D01*
X026447Y003685D01*
X026399Y003670D01*
X026350Y003659D01*
X026301Y003652D01*
X026251Y003649D01*
X026200Y003650D01*
X026151Y003655D01*
X026101Y003664D01*
X026053Y003677D01*
X026006Y003693D01*
X025960Y003714D01*
X025916Y003738D01*
X025874Y003765D01*
X025834Y003795D01*
X025797Y003829D01*
X025763Y003866D01*
X025731Y003905D01*
X025703Y003946D01*
X025678Y003990D01*
X025657Y004035D01*
X025640Y004082D01*
X025626Y004130D01*
X025616Y004179D01*
X025610Y004229D01*
X025608Y004279D01*
D23*
X017311Y006617D03*
X013268Y006617D03*
X014574Y001940D03*
X016005Y001940D03*
X020048Y001940D03*
X021480Y001940D03*
X025523Y001940D03*
X010531Y001940D03*
X009100Y001940D03*
X005056Y001940D03*
D24*
X006487Y004098D03*
X007669Y004098D03*
X011962Y004098D03*
X013143Y004098D03*
X014699Y004460D03*
X015880Y004460D03*
X017436Y004098D03*
X018617Y004098D03*
X022911Y004098D03*
X024092Y004098D03*
D25*
X027516Y001543D03*
X027516Y001346D03*
X027516Y001149D03*
X027516Y000952D03*
X027516Y000755D03*
X028264Y000755D03*
X028264Y000952D03*
X028264Y001149D03*
X028264Y001346D03*
X028264Y001543D03*
D26*
X027890Y001149D03*
D27*
X020931Y005130D03*
X020931Y005918D03*
D28*
X022211Y005524D03*
D29*
X022865Y006649D03*
X024165Y007649D03*
D30*
X023948Y005655D03*
X023082Y005655D03*
X023082Y005399D03*
X023082Y005143D03*
X023948Y005143D03*
D31*
X024992Y004864D02*
X025100Y004829D01*
X025460Y005189D01*
X025460Y005429D01*
X027020Y005429D01*
X027112Y005426D01*
X028220Y005429D02*
X028273Y005426D01*
X028220Y005429D02*
X028220Y004109D01*
X028340Y003989D01*
X028418Y003939D01*
X028360Y004009D02*
X028340Y003989D01*
D32*
X027582Y005449D03*
X027782Y005879D03*
X027572Y006309D03*
X026995Y006559D03*
X026515Y006559D03*
X024425Y005989D03*
X025795Y007279D03*
X026460Y001029D03*
D33*
X028300Y000789D02*
X028620Y000789D01*
X028940Y000469D01*
X029900Y000469D01*
X029900Y000789D01*
X029892Y000724D01*
X029892Y001314D02*
X029900Y001429D01*
X029900Y002389D01*
X029882Y002346D01*
X029260Y002709D02*
X028940Y002709D01*
X028620Y003029D01*
X029179Y002844D02*
X029260Y002709D01*
X028620Y002389D02*
X028300Y002069D01*
X028191Y002031D01*
X028191Y002740D02*
X027980Y002709D01*
X027340Y002709D01*
X027414Y002740D01*
X027340Y002709D02*
X027340Y003669D01*
X027402Y003609D01*
X028922Y003989D02*
X028940Y003989D01*
X025100Y005269D02*
X024992Y005375D01*
X025100Y005269D02*
X025100Y005649D01*
X025100Y006229D01*
X024992Y006114D01*
X023948Y005655D02*
X023820Y005589D01*
X023820Y007189D01*
X024140Y007509D01*
X024165Y007649D01*
X024460Y007829D01*
X025100Y007829D01*
X024992Y007875D01*
X025100Y007829D02*
X026060Y007829D01*
X026700Y007829D01*
X026672Y007875D01*
X028300Y007829D02*
X028422Y007739D01*
X025795Y007279D02*
X025740Y007189D01*
X026060Y006869D01*
X026380Y006549D01*
X026515Y006559D01*
X023820Y005589D02*
X023500Y005269D01*
X023500Y004949D01*
X024140Y004309D01*
X024092Y004098D01*
X024140Y004309D02*
X024101Y004413D01*
X022920Y004413D02*
X022860Y004309D01*
X022911Y004098D01*
X022860Y004309D02*
X022860Y004949D01*
X020940Y004949D01*
X020931Y005130D01*
X020940Y005909D02*
X020931Y005918D01*
X020940Y005909D02*
X021580Y005909D01*
X022220Y006549D01*
X022700Y006549D01*
X022860Y006549D01*
X022865Y006649D01*
X018380Y004309D02*
X017420Y005269D01*
X013260Y005269D01*
X013260Y004949D01*
X011660Y004949D01*
X011340Y004629D01*
X011340Y004309D01*
X007820Y004309D01*
X007669Y004098D01*
X007820Y004309D02*
X007668Y004417D01*
X006540Y004309D02*
X006487Y004098D01*
X006540Y004309D02*
X006486Y004417D01*
X011967Y004413D02*
X011980Y004309D01*
X011962Y004098D01*
X013143Y004098D02*
X013260Y004309D01*
X013260Y004949D01*
X014699Y004460D02*
X014860Y004309D01*
X014687Y004141D01*
X015820Y004309D02*
X015880Y004460D01*
X015820Y004309D02*
X015868Y004141D01*
X017420Y004309D02*
X017436Y004098D01*
X017420Y004309D02*
X017443Y004417D01*
X018380Y004309D02*
X018617Y004098D01*
X018700Y004309D01*
X018624Y004417D01*
X013260Y004309D02*
X013148Y004413D01*
D34*
X024992Y006625D02*
X025100Y006629D01*
X025100Y007349D01*
X024992Y007364D01*
X025100Y007349D02*
X025820Y007349D01*
X025795Y007279D01*
X026060Y006869D02*
X026540Y007349D01*
X026672Y007364D01*
X029179Y002844D02*
X029180Y002789D01*
X029900Y002789D01*
X029882Y002858D01*
X029179Y002332D02*
X029180Y002309D01*
X029180Y001589D01*
X029040Y001614D01*
X027500Y001589D02*
X027500Y002069D01*
X027414Y002031D01*
X026780Y001109D02*
X026540Y001109D01*
X026460Y001029D01*
X026780Y001109D02*
X026920Y000972D01*
D35*
X028672Y003619D02*
X028672Y003638D01*
X028726Y003692D01*
X028726Y004187D01*
X028672Y004241D01*
X028672Y005619D01*
X028922Y005619D01*
X028922Y003619D01*
X028672Y003619D01*
X028726Y003695D02*
X028922Y003695D01*
X028922Y003793D02*
X028726Y003793D01*
X028726Y003892D02*
X028922Y003892D01*
X028922Y003990D02*
X028726Y003990D01*
X028726Y004089D02*
X028922Y004089D01*
X028922Y004187D02*
X028726Y004187D01*
X028672Y004286D02*
X028922Y004286D01*
X028922Y004384D02*
X028672Y004384D01*
X028672Y004483D02*
X028922Y004483D01*
X028922Y004581D02*
X028672Y004581D01*
X028672Y004680D02*
X028922Y004680D01*
X028922Y004778D02*
X028672Y004778D01*
X028672Y004877D02*
X028922Y004877D01*
X028922Y004975D02*
X028672Y004975D01*
X028672Y005074D02*
X028922Y005074D01*
X028922Y005172D02*
X028672Y005172D01*
X028672Y005271D02*
X028922Y005271D01*
X028922Y005369D02*
X028672Y005369D01*
X028672Y005468D02*
X028922Y005468D01*
X028922Y005566D02*
X028672Y005566D01*
X027782Y005879D02*
X027496Y005623D01*
X027776Y006016D02*
X027672Y006119D01*
X027776Y006016D02*
X028273Y006016D01*
X028207Y006245D02*
X028212Y006259D01*
X028212Y007249D01*
X028422Y007519D01*
X028422Y007739D01*
X028762Y007739D01*
X030222Y006749D01*
X030222Y006199D01*
X029792Y006199D01*
X029292Y006699D01*
X029199Y006699D01*
X029199Y006734D01*
X029099Y006833D01*
X028486Y006833D01*
X028386Y006734D01*
X028386Y006245D01*
X028207Y006245D01*
X028211Y006256D02*
X028386Y006256D01*
X028386Y006354D02*
X028212Y006354D01*
X028212Y006453D02*
X028386Y006453D01*
X028386Y006551D02*
X028212Y006551D01*
X028212Y006650D02*
X028386Y006650D01*
X028401Y006748D02*
X028212Y006748D01*
X028212Y006847D02*
X030079Y006847D01*
X029933Y006945D02*
X028212Y006945D01*
X028212Y007044D02*
X029788Y007044D01*
X029643Y007142D02*
X028212Y007142D01*
X028212Y007241D02*
X029498Y007241D01*
X029352Y007339D02*
X028283Y007339D01*
X028359Y007438D02*
X029207Y007438D01*
X029062Y007536D02*
X028422Y007536D01*
X028422Y007635D02*
X028917Y007635D01*
X028771Y007733D02*
X028422Y007733D01*
X029184Y006748D02*
X030222Y006748D01*
X030222Y006650D02*
X029342Y006650D01*
X029440Y006551D02*
X030222Y006551D01*
X030222Y006453D02*
X029539Y006453D01*
X029637Y006354D02*
X030222Y006354D01*
X030222Y006256D02*
X029736Y006256D01*
D36*
X024101Y004413D03*
X022920Y004413D03*
X018624Y004417D03*
X017443Y004417D03*
X015868Y004141D03*
X014687Y004141D03*
X013148Y004413D03*
X011967Y004413D03*
X007668Y004417D03*
X006486Y004417D03*
X012916Y006617D03*
X017648Y006617D03*
X015664Y001940D03*
X014920Y001936D03*
X010187Y001936D03*
X009439Y001940D03*
X004707Y001940D03*
X020396Y001940D03*
X021140Y001936D03*
X025872Y001936D03*
D37*
X028191Y002031D02*
X028300Y001909D01*
X028300Y001589D01*
X028264Y001543D01*
X028264Y000952D02*
X028300Y000949D01*
X028300Y000789D01*
X023020Y005109D02*
X022860Y004949D01*
X023020Y005109D02*
X023082Y005143D01*
X023082Y005399D02*
X023020Y005429D01*
X022700Y005429D01*
X022700Y006549D01*
X022865Y006649D01*
X024300Y005909D02*
X024425Y005989D01*
X024300Y005909D02*
X024300Y005429D01*
X023980Y005109D01*
X023948Y005143D01*
X027020Y006229D02*
X027020Y006549D01*
X026995Y006559D01*
D38*
X025740Y006629D03*
X026060Y007829D03*
X028300Y007829D03*
X028940Y003989D03*
X028620Y003029D03*
X028620Y002389D03*
M02*
